# xmcd
#
# Track frame offsets:
#	183
#	21948
#	41800
#	58913
#	80825
#	96470
#	119335
#	136808
#	156253
#	174210
#	191053
#
# Disc length: 2815 seconds
#
# Revision: 9
# Processed by: cddbd v1.5.2PL0 Copyright (c) Steve Scherf et al.
# Submitted via: EasyCDDAExtractor 15.3.0.1
#
DISCID=9b0afd0b
DTITLE=Ricardo Montaner - En El Ultimo Lugar Del Mundo
DYEAR=1991
DGENRE=Latin
TTITLE0=Dejame Llorar
TTITLE1=Corazon Fracturado
TTITLE2=Sera
TTITLE3=Por Una Noche De Tu Sol
TTITLE4=Muchacha
TTITLE5=Tengo El Mundo Aqui (Bonus Track)
TTITLE6=En El Ultimo Lugar Del Mundo
TTITLE7=Arrebato De Amor
TTITLE8=La Pareja Del Año
TTITLE9=Lady Juan
TTITLE10=Vamos Pa' La Conga
EXTD=YEAR: 1990
EXTT0=
EXTT1=
EXTT2=
EXTT3=
EXTT4=
EXTT5=
EXTT6=
EXTT7=
EXTT8=
EXTT9=
EXTT10=
PLAYORDER=
